# xmcd
#
# Track frame offsets: 
#        150
#        14737
#        28712
#        45292
#        62834
#        77843
#        92670
#        109766
#        126784
#        143367
#        157894
#        176124
#        191485
#        208599
#        228525
#        246273
#        260298
#        277720
#        294498
#        311297
#        327236
#        342241
#
# Disc length: 4756 seconds
#
# Revision: 0
# Processed by: cddbd v1.5.2PL0 Copyright (c) Steve Scherf et al.
# Submitted via: ExactAudioCopyFreeDBPlugin 1.0
#
DISCID=2d129216
DTITLE=Various Artist - Viva Super Dance Vol.30
DYEAR=2002
DGENRE=Dance
TTITLE0=D-Code - The Colour Of Love
TTITLE1=T Seven - Passion
TTITLE2=E-Type - Life
TTITLE3=Movetron - Stay
TTITLE4=Sylver - Forgiven
TTITLE5=Right Said Fred - Love Song
TTITLE6=ATC - I'm In Heaven (When You Kiss Me)
TTITLE7=French Affair - Sexy
TTITLE8=Lasgo - Something
TTITLE9=Hermes House Band - Country Roads
TTITLE10=Gigi D'agostino - Un Giorno Credi
TTITLE11=DJ Quicksilver - Boombastic (meets Shaggy)
TTITLE12=Kylie Minogue - Can't Get You Out My Head
TTITLE13=Backstreet Boys - Drowning
TTITLE14=Mark' Oh - Never Stop That Feeling
TTITLE15=Nicole Da Silva - Enjoy Your Life
TTITLE16=Rimini Project - Away
TTITLE17=Caater - Dance With Me
TTITLE18=Jan Van Dahl - Castle In The Sky
TTITLE19=Charly Lownoise - Wonderfull Day
TTITLE20=Toy-Box - www_girl
TTITLE21=DJ Monte - The Girl In Red
EXTD=
EXTT0=
EXTT1=
EXTT2=
EXTT3=
EXTT4=
EXTT5=
EXTT6=
EXTT7=
EXTT8=
EXTT9=
EXTT10=
EXTT11=
EXTT12=
EXTT13=
EXTT14=
EXTT15=
EXTT16=
EXTT17=
EXTT18=
EXTT19=
EXTT20=
EXTT21=
PLAYORDER=
